<?xml version="1.0" standalone="no"?>
<!DOCTYPE svg PUBLIC "-//W3C//DTD SVG 20010904//EN"
 "http://www.w3.org/TR/2001/REC-SVG-20010904/DTD/svg10.dtd">
<svg version="1.0" xmlns="http://www.w3.org/2000/svg"
 width="200.000000pt" height="83.000000pt" viewBox="0 0 200.000000 83.000000"
 preserveAspectRatio="xMidYMid meet">

<g transform="translate(0.000000,83.000000) scale(0.100000,-0.100000)"
fill="#000000" stroke="none">
<path d="M1140 545 c0 -8 5 -15 10 -15 6 0 10 7 10 15 0 8 -4 15 -10 15 -5 0
-10 -7 -10 -15z"/>
<path d="M1220 522 c0 -10 -6 -24 -12 -31 -10 -11 -10 -14 0 -18 8 -3 12 -28
12 -74 0 -54 4 -71 15 -76 9 -3 19 -2 23 2 4 4 1 10 -5 12 -18 6 -18 129 0
137 10 5 10 7 0 12 -7 3 -13 17 -13 30 0 13 -4 24 -10 24 -5 0 -10 -8 -10 -18z"/>
<path d="M1510 522 c0 -10 -6 -24 -12 -31 -10 -11 -10 -14 0 -18 8 -3 12 -28
12 -74 0 -54 4 -71 15 -76 9 -3 19 -2 23 2 4 4 1 10 -5 12 -9 3 -13 26 -13 68
0 41 4 65 13 69 10 5 10 7 0 12 -7 3 -13 17 -13 30 0 13 -4 24 -10 24 -5 0
-10 -8 -10 -18z"/>
<path d="M1014 479 c-22 -24 -25 -119 -4 -144 18 -22 67 -19 80 4 12 24 13 41
1 41 -5 0 -11 -9 -14 -21 -4 -15 -12 -20 -29 -17 -20 3 -23 9 -26 59 -3 63 15
92 43 69 8 -7 15 -19 15 -26 0 -8 5 -14 10 -14 16 0 12 37 -6 54 -21 22 -47
20 -70 -5z"/>
<path d="M1600 480 c-26 -26 -28 -120 -4 -144 20 -20 58 -20 78 0 28 28 24
121 -6 147 -26 22 -43 22 -68 -3z m58 -12 c13 -13 16 -85 6 -112 -8 -21 -50
-21 -58 0 -3 9 -6 35 -6 58 0 41 13 66 35 66 6 0 16 -5 23 -12z"/>
<path d="M1925 489 c-4 -6 -13 -8 -21 -5 -11 4 -14 -11 -14 -79 0 -50 4 -85
10 -85 6 0 10 28 10 65 0 54 3 67 20 77 11 7 20 18 20 25 0 16 -16 17 -25 2z"/>
<path d="M1140 405 c0 -50 4 -85 10 -85 6 0 10 35 10 85 0 50 -4 85 -10 85 -6
0 -10 -35 -10 -85z"/>
<path d="M1280 484 c0 -3 12 -45 27 -92 l26 -85 -21 -18 c-26 -20 -28 -29 -7
-29 8 0 21 10 29 23 22 32 68 209 53 204 -6 -2 -18 -32 -27 -68 -18 -70 -20
-70 -44 14 -9 31 -21 57 -26 57 -6 0 -10 -3 -10 -6z"/>
<path d="M1742 408 c3 -78 4 -83 26 -86 13 -2 30 2 38 9 13 10 17 10 25 -2 5
-9 9 17 9 74 0 51 -4 87 -10 87 -6 0 -10 -28 -10 -62 0 -71 -9 -92 -36 -86
-16 3 -19 14 -22 76 -2 39 -7 72 -13 72 -6 0 -9 -32 -7 -82z"/>
</g>
</svg>
